<?xml version="1.0" standalone="no"?>
<!DOCTYPE svg PUBLIC "-//W3C//DTD SVG 1.1//EN" "http://www.w3.org/Graphics/SVG/1.1/DTD/svg11.dtd">
<svg version="1.1" width="1200" height="918" onload="init(evt)" viewBox="0 0 1200 918" xmlns="http://www.w3.org/2000/svg" xmlns:xlink="http://www.w3.org/1999/xlink">
<!-- Flame graph stack visualization. See https://github.com/brendangregg/FlameGraph for latest version, and http://www.brendangregg.com/flamegraphs.html for examples. -->
<!-- NOTES:  -->
<defs>
	<linearGradient id="background" y1="0" y2="1" x1="0" x2="0" >
		<stop stop-color="#eeeeee" offset="5%" />
		<stop stop-color="#eeeeb0" offset="95%" />
	</linearGradient>
</defs>
<style type="text/css">
	text { font-family:Verdana; font-size:12px; fill:rgb(0,0,0); }
	#search, #ignorecase { opacity:0.1; cursor:pointer; }
	#search:hover, #search.show, #ignorecase:hover, #ignorecase.show { opacity:1; }
	#subtitle { text-anchor:middle; font-color:rgb(160,160,160); }
	#title { text-anchor:middle; font-size:17px}
	#unzoom { cursor:pointer; }
	#frames > *:hover { stroke:black; stroke-width:0.5; cursor:pointer; }
	.hide { display:none; }
	.parent { opacity:0.5; }
</style>
<script type="text/ecmascript">
<![CDATA[
	"use strict";
	var details, searchbtn, unzoombtn, matchedtxt, svg, searching, currentSearchTerm, ignorecase, ignorecaseBtn;
	function init(evt) {
		details = document.getElementById("details").firstChild;
		searchbtn = document.getElementById("search");
		ignorecaseBtn = document.getElementById("ignorecase");
		unzoombtn = document.getElementById("unzoom");
		matchedtxt = document.getElementById("matched");
		svg = document.getElementsByTagName("svg")[0];
		searching = 0;
		currentSearchTerm = null;

		// use GET parameters to restore a flamegraphs state.
		var params = get_params();
		if (params.x && params.y)
			zoom(find_group(document.querySelector('[x="' + params.x + '"][y="' + params.y + '"]')));
                if (params.s) search(params.s);
	}

	// event listeners
	window.addEventListener("click", function(e) {
		var target = find_group(e.target);
		if (target) {
			if (target.nodeName == "a") {
				if (e.ctrlKey === false) return;
				e.preventDefault();
			}
			if (target.classList.contains("parent")) unzoom();
			zoom(target);
			if (!document.querySelector('.parent')) {
				clearzoom();
				return;
			}

			// set parameters for zoom state
			var el = target.querySelector("rect");
			if (el && el.attributes && el.attributes.y && el.attributes._orig_x) {
				var params = get_params()
				params.x = el.attributes._orig_x.value;
				params.y = el.attributes.y.value;
				history.replaceState(null, null, parse_params(params));
			}
		}
		else if (e.target.id == "unzoom") clearzoom();
		else if (e.target.id == "search") search_prompt();
		else if (e.target.id == "ignorecase") toggle_ignorecase();
	}, false)

	// mouse-over for info
	// show
	window.addEventListener("mouseover", function(e) {
		var target = find_group(e.target);
		if (target) details.nodeValue = "Function: " + g_to_text(target);
	}, false)

	// clear
	window.addEventListener("mouseout", function(e) {
		var target = find_group(e.target);
		if (target) details.nodeValue = ' ';
	}, false)

	// ctrl-F for search
	// ctrl-I to toggle case-sensitive search
	window.addEventListener("keydown",function (e) {
		if (e.keyCode === 114 || (e.ctrlKey && e.keyCode === 70)) {
			e.preventDefault();
			search_prompt();
		}
		else if (e.ctrlKey && e.keyCode === 73) {
			e.preventDefault();
			toggle_ignorecase();
		}
	}, false)

	// functions
	function get_params() {
		var params = {};
		var paramsarr = window.location.search.substr(1).split('&');
		for (var i = 0; i < paramsarr.length; ++i) {
			var tmp = paramsarr[i].split("=");
			if (!tmp[0] || !tmp[1]) continue;
			params[tmp[0]]  = decodeURIComponent(tmp[1]);
		}
		return params;
	}
	function parse_params(params) {
		var uri = "?";
		for (var key in params) {
			uri += key + '=' + encodeURIComponent(params[key]) + '&';
		}
		if (uri.slice(-1) == "&")
			uri = uri.substring(0, uri.length - 1);
		if (uri == '?')
			uri = window.location.href.split('?')[0];
		return uri;
	}
	function find_child(node, selector) {
		var children = node.querySelectorAll(selector);
		if (children.length) return children[0];
	}
	function find_group(node) {
		var parent = node.parentElement;
		if (!parent) return;
		if (parent.id == "frames") return node;
		return find_group(parent);
	}
	function orig_save(e, attr, val) {
		if (e.attributes["_orig_" + attr] != undefined) return;
		if (e.attributes[attr] == undefined) return;
		if (val == undefined) val = e.attributes[attr].value;
		e.setAttribute("_orig_" + attr, val);
	}
	function orig_load(e, attr) {
		if (e.attributes["_orig_"+attr] == undefined) return;
		e.attributes[attr].value = e.attributes["_orig_" + attr].value;
		e.removeAttribute("_orig_"+attr);
	}
	function g_to_text(e) {
		var text = find_child(e, "title").firstChild.nodeValue;
		return (text)
	}
	function g_to_func(e) {
		var func = g_to_text(e);
		// if there's any manipulation we want to do to the function
		// name before it's searched, do it here before returning.
		return (func);
	}
	function update_text(e) {
		var r = find_child(e, "rect");
		var t = find_child(e, "text");
		var w = parseFloat(r.attributes.width.value) -3;
		var txt = find_child(e, "title").textContent.replace(/\([^(]*\)$/,"");
		t.attributes.x.value = parseFloat(r.attributes.x.value) + 3;

		// Smaller than this size won't fit anything
		if (w < 2 * 12 * 0.59) {
			t.textContent = "";
			return;
		}

		t.textContent = txt;
		// Fit in full text width
		if (/^ *$/.test(txt) || t.getSubStringLength(0, txt.length) < w)
			return;

		for (var x = txt.length - 2; x > 0; x--) {
			if (t.getSubStringLength(0, x + 2) <= w) {
				t.textContent = txt.substring(0, x) + "..";
				return;
			}
		}
		t.textContent = "";
	}

	// zoom
	function zoom_reset(e) {
		if (e.attributes != undefined) {
			orig_load(e, "x");
			orig_load(e, "width");
		}
		if (e.childNodes == undefined) return;
		for (var i = 0, c = e.childNodes; i < c.length; i++) {
			zoom_reset(c[i]);
		}
	}
	function zoom_child(e, x, ratio) {
		if (e.attributes != undefined) {
			if (e.attributes.x != undefined) {
				orig_save(e, "x");
				e.attributes.x.value = (parseFloat(e.attributes.x.value) - x - 10) * ratio + 10;
				if (e.tagName == "text")
					e.attributes.x.value = find_child(e.parentNode, "rect[x]").attributes.x.value + 3;
			}
			if (e.attributes.width != undefined) {
				orig_save(e, "width");
				e.attributes.width.value = parseFloat(e.attributes.width.value) * ratio;
			}
		}

		if (e.childNodes == undefined) return;
		for (var i = 0, c = e.childNodes; i < c.length; i++) {
			zoom_child(c[i], x - 10, ratio);
		}
	}
	function zoom_parent(e) {
		if (e.attributes) {
			if (e.attributes.x != undefined) {
				orig_save(e, "x");
				e.attributes.x.value = 10;
			}
			if (e.attributes.width != undefined) {
				orig_save(e, "width");
				e.attributes.width.value = parseInt(svg.width.baseVal.value) - (10 * 2);
			}
		}
		if (e.childNodes == undefined) return;
		for (var i = 0, c = e.childNodes; i < c.length; i++) {
			zoom_parent(c[i]);
		}
	}
	function zoom(node) {
		var attr = find_child(node, "rect").attributes;
		var width = parseFloat(attr.width.value);
		var xmin = parseFloat(attr.x.value);
		var xmax = parseFloat(xmin + width);
		var ymin = parseFloat(attr.y.value);
		var ratio = (svg.width.baseVal.value - 2 * 10) / width;

		// XXX: Workaround for JavaScript float issues (fix me)
		var fudge = 0.0001;

		unzoombtn.classList.remove("hide");

		var el = document.getElementById("frames").children;
		for (var i = 0; i < el.length; i++) {
			var e = el[i];
			var a = find_child(e, "rect").attributes;
			var ex = parseFloat(a.x.value);
			var ew = parseFloat(a.width.value);
			var upstack;
			// Is it an ancestor
			if (0 == 0) {
				upstack = parseFloat(a.y.value) > ymin;
			} else {
				upstack = parseFloat(a.y.value) < ymin;
			}
			if (upstack) {
				// Direct ancestor
				if (ex <= xmin && (ex+ew+fudge) >= xmax) {
					e.classList.add("parent");
					zoom_parent(e);
					update_text(e);
				}
				// not in current path
				else
					e.classList.add("hide");
			}
			// Children maybe
			else {
				// no common path
				if (ex < xmin || ex + fudge >= xmax) {
					e.classList.add("hide");
				}
				else {
					zoom_child(e, xmin, ratio);
					update_text(e);
				}
			}
		}
		search();
	}
	function unzoom() {
		unzoombtn.classList.add("hide");
		var el = document.getElementById("frames").children;
		for(var i = 0; i < el.length; i++) {
			el[i].classList.remove("parent");
			el[i].classList.remove("hide");
			zoom_reset(el[i]);
			update_text(el[i]);
		}
		search();
	}
	function clearzoom() {
		unzoom();

		// remove zoom state
		var params = get_params();
		if (params.x) delete params.x;
		if (params.y) delete params.y;
		history.replaceState(null, null, parse_params(params));
	}

	// search
	function toggle_ignorecase() {
		ignorecase = !ignorecase;
		if (ignorecase) {
			ignorecaseBtn.classList.add("show");
		} else {
			ignorecaseBtn.classList.remove("show");
		}
		reset_search();
		search();
	}
	function reset_search() {
		var el = document.querySelectorAll("#frames rect");
		for (var i = 0; i < el.length; i++) {
			orig_load(el[i], "fill")
		}
		var params = get_params();
		delete params.s;
		history.replaceState(null, null, parse_params(params));
	}
	function search_prompt() {
		if (!searching) {
			var term = prompt("Enter a search term (regexp " +
			    "allowed, eg: ^ext4_)"
			    + (ignorecase ? ", ignoring case" : "")
			    + "\nPress Ctrl-i to toggle case sensitivity", "");
			if (term != null) search(term);
		} else {
			reset_search();
			searching = 0;
			currentSearchTerm = null;
			searchbtn.classList.remove("show");
			searchbtn.firstChild.nodeValue = "Search"
			matchedtxt.classList.add("hide");
			matchedtxt.firstChild.nodeValue = ""
		}
	}
	function search(term) {
		if (term) currentSearchTerm = term;

		var re = new RegExp(currentSearchTerm, ignorecase ? 'i' : '');
		var el = document.getElementById("frames").children;
		var matches = new Object();
		var maxwidth = 0;
		for (var i = 0; i < el.length; i++) {
			var e = el[i];
			var func = g_to_func(e);
			var rect = find_child(e, "rect");
			if (func == null || rect == null)
				continue;

			// Save max width. Only works as we have a root frame
			var w = parseFloat(rect.attributes.width.value);
			if (w > maxwidth)
				maxwidth = w;

			if (func.match(re)) {
				// highlight
				var x = parseFloat(rect.attributes.x.value);
				orig_save(rect, "fill");
				rect.attributes.fill.value = "rgb(230,0,230)";

				// remember matches
				if (matches[x] == undefined) {
					matches[x] = w;
				} else {
					if (w > matches[x]) {
						// overwrite with parent
						matches[x] = w;
					}
				}
				searching = 1;
			}
		}
		if (!searching)
			return;
		var params = get_params();
		params.s = currentSearchTerm;
		history.replaceState(null, null, parse_params(params));

		searchbtn.classList.add("show");
		searchbtn.firstChild.nodeValue = "Reset Search";

		// calculate percent matched, excluding vertical overlap
		var count = 0;
		var lastx = -1;
		var lastw = 0;
		var keys = Array();
		for (k in matches) {
			if (matches.hasOwnProperty(k))
				keys.push(k);
		}
		// sort the matched frames by their x location
		// ascending, then width descending
		keys.sort(function(a, b){
			return a - b;
		});
		// Step through frames saving only the biggest bottom-up frames
		// thanks to the sort order. This relies on the tree property
		// where children are always smaller than their parents.
		var fudge = 0.0001;	// JavaScript floating point
		for (var k in keys) {
			var x = parseFloat(keys[k]);
			var w = matches[keys[k]];
			if (x >= lastx + lastw - fudge) {
				count += w;
				lastx = x;
				lastw = w;
			}
		}
		// display matched percent
		matchedtxt.classList.remove("hide");
		var pct = 100 * count / maxwidth;
		if (pct != 100) pct = pct.toFixed(1)
		matchedtxt.firstChild.nodeValue = "Matched: " + pct + "%";
	}
]]>
</script>
<rect x="0.0" y="0" width="1200.0" height="918.0" fill="url(#background)"  />
<text id="title" x="600.00" y="24" >Flame Graph</text>
<text id="details" x="10.00" y="901" > </text>
<text id="unzoom" x="10.00" y="24" class="hide">Reset Zoom</text>
<text id="search" x="1090.00" y="24" >Search</text>
<text id="ignorecase" x="1174.00" y="24" >ic</text>
<text id="matched" x="1090.00" y="901" > </text>
<g id="frames">
<g >
<title>[kube-apiserver] (2 samples, 7.69%)</title><rect x="509.2" y="485" width="90.8" height="15.0" fill="rgb(217,60,20)" rx="2" ry="2" />
<text  x="512.23" y="495.5" >[kube-apis..</text>
</g>
<g >
<title>entry_SYSCALL_64_after_hwframe (7 samples, 26.92%)</title><rect x="872.3" y="661" width="317.7" height="15.0" fill="rgb(252,187,50)" rx="2" ry="2" />
<text  x="875.31" y="671.5" >entry_SYSCALL_64_after_hwframe</text>
</g>
<g >
<title>do_futex (1 samples, 3.85%)</title><rect x="600.0" y="549" width="45.4" height="15.0" fill="rgb(228,183,14)" rx="2" ry="2" />
<text  x="603.00" y="559.5" >do_f..</text>
</g>
<g >
<title>[kube-apiserver] (26 samples, 100.00%)</title><rect x="10.0" y="821" width="1180.0" height="15.0" fill="rgb(236,186,39)" rx="2" ry="2" />
<text  x="13.00" y="831.5" >[kube-apiserver]</text>
</g>
<g >
<title>futex_wake (1 samples, 3.85%)</title><rect x="600.0" y="533" width="45.4" height="15.0" fill="rgb(218,129,44)" rx="2" ry="2" />
<text  x="603.00" y="543.5" >fute..</text>
</g>
<g >
<title>ep_poll (5 samples, 19.23%)</title><rect x="963.1" y="565" width="226.9" height="15.0" fill="rgb(251,23,22)" rx="2" ry="2" />
<text  x="966.08" y="575.5" >ep_poll</text>
</g>
<g >
<title>ip_output (1 samples, 3.85%)</title><rect x="826.9" y="373" width="45.4" height="15.0" fill="rgb(211,205,45)" rx="2" ry="2" />
<text  x="829.92" y="383.5" >ip_o..</text>
</g>
<g >
<title>[kube-apiserver] (11 samples, 42.31%)</title><rect x="373.1" y="661" width="499.2" height="15.0" fill="rgb(231,102,7)" rx="2" ry="2" />
<text  x="376.08" y="671.5" >[kube-apiserver]</text>
</g>
<g >
<title>x64_sys_call (5 samples, 19.23%)</title><rect x="645.4" y="613" width="226.9" height="15.0" fill="rgb(221,210,46)" rx="2" ry="2" />
<text  x="648.38" y="623.5" >x64_sys_call</text>
</g>
<g >
<title>ep_poll (4 samples, 15.38%)</title><rect x="645.4" y="549" width="181.5" height="15.0" fill="rgb(232,89,27)" rx="2" ry="2" />
<text  x="648.38" y="559.5" >ep_poll</text>
</g>
<g >
<title>__do_softirq (1 samples, 3.85%)</title><rect x="826.9" y="245" width="45.4" height="15.0" fill="rgb(248,143,30)" rx="2" ry="2" />
<text  x="829.92" y="255.5" >__do..</text>
</g>
<g >
<title>[kube-apiserver] (22 samples, 84.62%)</title><rect x="191.5" y="741" width="998.5" height="15.0" fill="rgb(248,82,38)" rx="2" ry="2" />
<text  x="194.54" y="751.5" >[kube-apiserver]</text>
</g>
<g >
<title>[kube-apiserver] (20 samples, 76.92%)</title><rect x="282.3" y="725" width="907.7" height="15.0" fill="rgb(225,87,53)" rx="2" ry="2" />
<text  x="285.31" y="735.5" >[kube-apiserver]</text>
</g>
<g >
<title>__ip_queue_xmit (1 samples, 3.85%)</title><rect x="826.9" y="405" width="45.4" height="15.0" fill="rgb(211,19,2)" rx="2" ry="2" />
<text  x="829.92" y="415.5" >__ip..</text>
</g>
<g >
<title>__x64_sys_epoll_pwait (4 samples, 15.38%)</title><rect x="645.4" y="597" width="181.5" height="15.0" fill="rgb(213,126,50)" rx="2" ry="2" />
<text  x="648.38" y="607.5" >__x64_sys_epoll_pwait</text>
</g>
<g >
<title>__ip_finish_output (1 samples, 3.85%)</title><rect x="826.9" y="341" width="45.4" height="15.0" fill="rgb(238,77,15)" rx="2" ry="2" />
<text  x="829.92" y="351.5" >__ip..</text>
</g>
<g >
<title>__netif_receive_skb_one_core (1 samples, 3.85%)</title><rect x="826.9" y="149" width="45.4" height="15.0" fill="rgb(213,107,31)" rx="2" ry="2" />
<text  x="829.92" y="159.5" >__ne..</text>
</g>
<g >
<title>__netif_receive_skb (1 samples, 3.85%)</title><rect x="826.9" y="165" width="45.4" height="15.0" fill="rgb(209,152,16)" rx="2" ry="2" />
<text  x="829.92" y="175.5" >__ne..</text>
</g>
<g >
<title>do_syscall_64 (1 samples, 3.85%)</title><rect x="600.0" y="597" width="45.4" height="15.0" fill="rgb(231,153,38)" rx="2" ry="2" />
<text  x="603.00" y="607.5" >do_s..</text>
</g>
<g >
<title>schedule (4 samples, 15.38%)</title><rect x="1008.5" y="517" width="181.5" height="15.0" fill="rgb(239,26,26)" rx="2" ry="2" />
<text  x="1011.46" y="527.5" >schedule</text>
</g>
<g >
<title>neigh_hh_output (1 samples, 3.85%)</title><rect x="826.9" y="309" width="45.4" height="15.0" fill="rgb(205,116,23)" rx="2" ry="2" />
<text  x="829.92" y="319.5" >neig..</text>
</g>
<g >
<title>tcp_sendmsg_locked (1 samples, 3.85%)</title><rect x="826.9" y="501" width="45.4" height="15.0" fill="rgb(253,171,47)" rx="2" ry="2" />
<text  x="829.92" y="511.5" >tcp_..</text>
</g>
<g >
<title>[kube-apiserver] (3 samples, 11.54%)</title><rect x="463.8" y="549" width="136.2" height="15.0" fill="rgb(227,99,12)" rx="2" ry="2" />
<text  x="466.85" y="559.5" >[kube-apiserver]</text>
</g>
<g >
<title>tcp_sendmsg (1 samples, 3.85%)</title><rect x="826.9" y="517" width="45.4" height="15.0" fill="rgb(211,71,41)" rx="2" ry="2" />
<text  x="829.92" y="527.5" >tcp_..</text>
</g>
<g >
<title>__local_bh_enable_ip (1 samples, 3.85%)</title><rect x="826.9" y="277" width="45.4" height="15.0" fill="rgb(226,126,41)" rx="2" ry="2" />
<text  x="829.92" y="287.5" >__lo..</text>
</g>
<g >
<title>handle_softirqs (1 samples, 3.85%)</title><rect x="826.9" y="229" width="45.4" height="15.0" fill="rgb(230,112,39)" rx="2" ry="2" />
<text  x="829.92" y="239.5" >hand..</text>
</g>
<g >
<title>[kube-apiserver] (1 samples, 3.85%)</title><rect x="509.2" y="437" width="45.4" height="15.0" fill="rgb(207,190,25)" rx="2" ry="2" />
<text  x="512.23" y="447.5" >[kub..</text>
</g>
<g >
<title>schedule_hrtimeout_range_clock (4 samples, 15.38%)</title><rect x="645.4" y="517" width="181.5" height="15.0" fill="rgb(253,16,41)" rx="2" ry="2" />
<text  x="648.38" y="527.5" >schedule_hrtimeout_rang..</text>
</g>
<g >
<title>entry_SYSCALL_64_after_hwframe (1 samples, 3.85%)</title><rect x="554.6" y="437" width="45.4" height="15.0" fill="rgb(234,174,27)" rx="2" ry="2" />
<text  x="557.62" y="447.5" >entr..</text>
</g>
<g >
<title>vfs_write (1 samples, 3.85%)</title><rect x="826.9" y="565" width="45.4" height="15.0" fill="rgb(251,174,19)" rx="2" ry="2" />
<text  x="829.92" y="575.5" >vfs_..</text>
</g>
<g >
<title>__seccomp_filter (1 samples, 3.85%)</title><rect x="554.6" y="373" width="45.4" height="15.0" fill="rgb(238,13,23)" rx="2" ry="2" />
<text  x="557.62" y="383.5" >__se..</text>
</g>
<g >
<title>[kube-apiserver] (26 samples, 100.00%)</title><rect x="10.0" y="805" width="1180.0" height="15.0" fill="rgb(254,150,33)" rx="2" ry="2" />
<text  x="13.00" y="815.5" >[kube-apiserver]</text>
</g>
<g >
<title>[kube-apiserver] (1 samples, 3.85%)</title><rect x="509.2" y="421" width="45.4" height="15.0" fill="rgb(246,177,50)" rx="2" ry="2" />
<text  x="512.23" y="431.5" >[kub..</text>
</g>
<g >
<title>do_syscall_64 (1 samples, 3.85%)</title><rect x="554.6" y="421" width="45.4" height="15.0" fill="rgb(233,139,31)" rx="2" ry="2" />
<text  x="557.62" y="431.5" >do_s..</text>
</g>
<g >
<title>tcp_write_xmit (1 samples, 3.85%)</title><rect x="826.9" y="453" width="45.4" height="15.0" fill="rgb(231,219,25)" rx="2" ry="2" />
<text  x="829.92" y="463.5" >tcp_..</text>
</g>
<g >
<title>_raw_spin_unlock_irqrestore (1 samples, 3.85%)</title><rect x="600.0" y="501" width="45.4" height="15.0" fill="rgb(240,68,2)" rx="2" ry="2" />
<text  x="603.00" y="511.5" >_raw..</text>
</g>
<g >
<title>tcp_ack (1 samples, 3.85%)</title><rect x="826.9" y="37" width="45.4" height="15.0" fill="rgb(240,44,19)" rx="2" ry="2" />
<text  x="829.92" y="47.5" >tcp_..</text>
</g>
<g >
<title>__schedule (3 samples, 11.54%)</title><rect x="1053.8" y="501" width="136.2" height="15.0" fill="rgb(237,173,1)" rx="2" ry="2" />
<text  x="1056.85" y="511.5" >__schedule</text>
</g>
<g >
<title>[kube-apiserver] (2 samples, 7.69%)</title><rect x="509.2" y="453" width="90.8" height="15.0" fill="rgb(221,115,46)" rx="2" ry="2" />
<text  x="512.23" y="463.5" >[kube-apis..</text>
</g>
<g >
<title>[kube-apiserver] (5 samples, 19.23%)</title><rect x="418.5" y="629" width="226.9" height="15.0" fill="rgb(250,9,26)" rx="2" ry="2" />
<text  x="421.46" y="639.5" >[kube-apiserver]</text>
</g>
<g >
<title>[kube-apiserver] (4 samples, 15.38%)</title><rect x="418.5" y="597" width="181.5" height="15.0" fill="rgb(243,43,48)" rx="2" ry="2" />
<text  x="421.46" y="607.5" >[kube-apiserver]</text>
</g>
<g >
<title>x64_sys_call (7 samples, 26.92%)</title><rect x="872.3" y="629" width="317.7" height="15.0" fill="rgb(222,181,50)" rx="2" ry="2" />
<text  x="875.31" y="639.5" >x64_sys_call</text>
</g>
<g >
<title>ip_finish_output (1 samples, 3.85%)</title><rect x="826.9" y="357" width="45.4" height="15.0" fill="rgb(213,184,33)" rx="2" ry="2" />
<text  x="829.92" y="367.5" >ip_f..</text>
</g>
<g >
<title>__x64_sys_epoll_pwait (7 samples, 26.92%)</title><rect x="872.3" y="613" width="317.7" height="15.0" fill="rgb(243,119,30)" rx="2" ry="2" />
<text  x="875.31" y="623.5" >__x64_sys_epoll_pwait</text>
</g>
<g >
<title>do_syscall_64 (7 samples, 26.92%)</title><rect x="872.3" y="645" width="317.7" height="15.0" fill="rgb(247,25,21)" rx="2" ry="2" />
<text  x="875.31" y="655.5" >do_syscall_64</text>
</g>
<g >
<title>[kube-apiserver] (19 samples, 73.08%)</title><rect x="327.7" y="709" width="862.3" height="15.0" fill="rgb(249,16,33)" rx="2" ry="2" />
<text  x="330.69" y="719.5" >[kube-apiserver]</text>
</g>
<g >
<title>finish_task_switch.isra.0 (3 samples, 11.54%)</title><rect x="1053.8" y="485" width="136.2" height="15.0" fill="rgb(236,202,3)" rx="2" ry="2" />
<text  x="1056.85" y="495.5" >finish_task_switc..</text>
</g>
<g >
<title>[kube-apiserver] (25 samples, 96.15%)</title><rect x="55.4" y="773" width="1134.6" height="15.0" fill="rgb(249,69,45)" rx="2" ry="2" />
<text  x="58.38" y="783.5" >[kube-apiserver]</text>
</g>
<g >
<title>[kube-apiserver] (4 samples, 15.38%)</title><rect x="418.5" y="581" width="181.5" height="15.0" fill="rgb(226,64,1)" rx="2" ry="2" />
<text  x="421.46" y="591.5" >[kube-apiserver]</text>
</g>
<g >
<title>ip_finish_output2 (1 samples, 3.85%)</title><rect x="826.9" y="325" width="45.4" height="15.0" fill="rgb(231,84,25)" rx="2" ry="2" />
<text  x="829.92" y="335.5" >ip_f..</text>
</g>
<g >
<title>kube-apiserver (26 samples, 100.00%)</title><rect x="10.0" y="853" width="1180.0" height="15.0" fill="rgb(216,117,34)" rx="2" ry="2" />
<text  x="13.00" y="863.5" >kube-apiserver</text>
</g>
<g >
<title>[kube-apiserver] (26 samples, 100.00%)</title><rect x="10.0" y="837" width="1180.0" height="15.0" fill="rgb(243,131,42)" rx="2" ry="2" />
<text  x="13.00" y="847.5" >[kube-apiserver]</text>
</g>
<g >
<title>[kube-apiserver] (6 samples, 23.08%)</title><rect x="373.1" y="645" width="272.3" height="15.0" fill="rgb(237,15,52)" rx="2" ry="2" />
<text  x="376.08" y="655.5" >[kube-apiserver]</text>
</g>
<g >
<title>[kube-apiserver] (3 samples, 11.54%)</title><rect x="463.8" y="565" width="136.2" height="15.0" fill="rgb(205,181,30)" rx="2" ry="2" />
<text  x="466.85" y="575.5" >[kube-apiserver]</text>
</g>
<g >
<title>do_epoll_pwait.part.0 (5 samples, 19.23%)</title><rect x="963.1" y="597" width="226.9" height="15.0" fill="rgb(225,50,34)" rx="2" ry="2" />
<text  x="966.08" y="607.5" >do_epoll_pwait.part.0</text>
</g>
<g >
<title>[kube-apiserver] (26 samples, 100.00%)</title><rect x="10.0" y="789" width="1180.0" height="15.0" fill="rgb(238,190,27)" rx="2" ry="2" />
<text  x="13.00" y="799.5" >[kube-apiserver]</text>
</g>
<g >
<title>inet_sendmsg (1 samples, 3.85%)</title><rect x="826.9" y="533" width="45.4" height="15.0" fill="rgb(231,218,14)" rx="2" ry="2" />
<text  x="829.92" y="543.5" >inet..</text>
</g>
<g >
<title>finish_task_switch.isra.0 (4 samples, 15.38%)</title><rect x="645.4" y="469" width="181.5" height="15.0" fill="rgb(252,157,43)" rx="2" ry="2" />
<text  x="648.38" y="479.5" >finish_task_switch.isra.0</text>
</g>
<g >
<title>ksys_write (1 samples, 3.85%)</title><rect x="826.9" y="581" width="45.4" height="15.0" fill="rgb(216,179,37)" rx="2" ry="2" />
<text  x="829.92" y="591.5" >ksys..</text>
</g>
<g >
<title>entry_SYSCALL_64_after_hwframe (1 samples, 3.85%)</title><rect x="600.0" y="613" width="45.4" height="15.0" fill="rgb(212,13,20)" rx="2" ry="2" />
<text  x="603.00" y="623.5" >entr..</text>
</g>
<g >
<title>__secure_computing (1 samples, 3.85%)</title><rect x="554.6" y="389" width="45.4" height="15.0" fill="rgb(251,106,21)" rx="2" ry="2" />
<text  x="557.62" y="399.5" >__se..</text>
</g>
<g >
<title>schedule_hrtimeout_range (4 samples, 15.38%)</title><rect x="645.4" y="533" width="181.5" height="15.0" fill="rgb(236,171,0)" rx="2" ry="2" />
<text  x="648.38" y="543.5" >schedule_hrtimeout_range</text>
</g>
<g >
<title>ip_local_deliver (1 samples, 3.85%)</title><rect x="826.9" y="117" width="45.4" height="15.0" fill="rgb(228,89,18)" rx="2" ry="2" />
<text  x="829.92" y="127.5" >ip_l..</text>
</g>
<g >
<title>sock_write_iter (1 samples, 3.85%)</title><rect x="826.9" y="549" width="45.4" height="15.0" fill="rgb(234,126,31)" rx="2" ry="2" />
<text  x="829.92" y="559.5" >sock..</text>
</g>
<g >
<title>[kube-apiserver] (18 samples, 69.23%)</title><rect x="373.1" y="677" width="816.9" height="15.0" fill="rgb(240,12,23)" rx="2" ry="2" />
<text  x="376.08" y="687.5" >[kube-apiserver]</text>
</g>
<g >
<title>ip_local_out (1 samples, 3.85%)</title><rect x="826.9" y="389" width="45.4" height="15.0" fill="rgb(234,91,54)" rx="2" ry="2" />
<text  x="829.92" y="399.5" >ip_l..</text>
</g>
<g >
<title>do_epoll_wait (5 samples, 19.23%)</title><rect x="963.1" y="581" width="226.9" height="15.0" fill="rgb(214,97,15)" rx="2" ry="2" />
<text  x="966.08" y="591.5" >do_epoll_wait</text>
</g>
<g >
<title>tcp_v4_rcv (1 samples, 3.85%)</title><rect x="826.9" y="69" width="45.4" height="15.0" fill="rgb(224,2,22)" rx="2" ry="2" />
<text  x="829.92" y="79.5" >tcp_..</text>
</g>
<g >
<title>[kube-apiserver] (2 samples, 7.69%)</title><rect x="509.2" y="533" width="90.8" height="15.0" fill="rgb(224,152,4)" rx="2" ry="2" />
<text  x="512.23" y="543.5" >[kube-apis..</text>
</g>
<g >
<title>all (26 samples, 100%)</title><rect x="10.0" y="869" width="1180.0" height="15.0" fill="rgb(219,203,19)" rx="2" ry="2" />
<text  x="13.00" y="879.5" ></text>
</g>
<g >
<title>[kube-apiserver] (1 samples, 3.85%)</title><rect x="509.2" y="405" width="45.4" height="15.0" fill="rgb(219,179,28)" rx="2" ry="2" />
<text  x="512.23" y="415.5" >[kub..</text>
</g>
<g >
<title>do_syscall_64 (5 samples, 19.23%)</title><rect x="645.4" y="629" width="226.9" height="15.0" fill="rgb(243,18,28)" rx="2" ry="2" />
<text  x="648.38" y="639.5" >do_syscall_64</text>
</g>
<g >
<title>__x64_sys_futex (1 samples, 3.85%)</title><rect x="600.0" y="565" width="45.4" height="15.0" fill="rgb(224,197,11)" rx="2" ry="2" />
<text  x="603.00" y="575.5" >__x6..</text>
</g>
<g >
<title>ip_local_deliver_finish (1 samples, 3.85%)</title><rect x="826.9" y="101" width="45.4" height="15.0" fill="rgb(234,42,52)" rx="2" ry="2" />
<text  x="829.92" y="111.5" >ip_l..</text>
</g>
<g >
<title>do_softirq (1 samples, 3.85%)</title><rect x="826.9" y="261" width="45.4" height="15.0" fill="rgb(224,160,49)" rx="2" ry="2" />
<text  x="829.92" y="271.5" >do_s..</text>
</g>
<g >
<title>ip_queue_xmit (1 samples, 3.85%)</title><rect x="826.9" y="421" width="45.4" height="15.0" fill="rgb(248,24,47)" rx="2" ry="2" />
<text  x="829.92" y="431.5" >ip_q..</text>
</g>
<g >
<title>__x64_sys_write (1 samples, 3.85%)</title><rect x="826.9" y="597" width="45.4" height="15.0" fill="rgb(244,82,40)" rx="2" ry="2" />
<text  x="829.92" y="607.5" >__x6..</text>
</g>
<g >
<title>schedule_hrtimeout_range (5 samples, 19.23%)</title><rect x="963.1" y="549" width="226.9" height="15.0" fill="rgb(218,74,12)" rx="2" ry="2" />
<text  x="966.08" y="559.5" >schedule_hrtimeout_range</text>
</g>
<g >
<title>ip_rcv (1 samples, 3.85%)</title><rect x="826.9" y="133" width="45.4" height="15.0" fill="rgb(213,97,24)" rx="2" ry="2" />
<text  x="829.92" y="143.5" >ip_rcv</text>
</g>
<g >
<title>tcp_push (1 samples, 3.85%)</title><rect x="826.9" y="485" width="45.4" height="15.0" fill="rgb(205,53,15)" rx="2" ry="2" />
<text  x="829.92" y="495.5" >tcp_..</text>
</g>
<g >
<title>do_epoll_pwait.part.0 (4 samples, 15.38%)</title><rect x="645.4" y="581" width="181.5" height="15.0" fill="rgb(248,48,17)" rx="2" ry="2" />
<text  x="648.38" y="591.5" >do_epoll_pwait.part.0</text>
</g>
<g >
<title>[kube-apiserver] (25 samples, 96.15%)</title><rect x="55.4" y="757" width="1134.6" height="15.0" fill="rgb(218,137,54)" rx="2" ry="2" />
<text  x="58.38" y="767.5" >[kube-apiserver]</text>
</g>
<g >
<title>ip_protocol_deliver_rcu (1 samples, 3.85%)</title><rect x="826.9" y="85" width="45.4" height="15.0" fill="rgb(240,65,35)" rx="2" ry="2" />
<text  x="829.92" y="95.5" >ip_p..</text>
</g>
<g >
<title>tcp_v4_do_rcv (1 samples, 3.85%)</title><rect x="826.9" y="53" width="45.4" height="15.0" fill="rgb(248,6,36)" rx="2" ry="2" />
<text  x="829.92" y="63.5" >tcp_..</text>
</g>
<g >
<title>__dev_queue_xmit (1 samples, 3.85%)</title><rect x="826.9" y="293" width="45.4" height="15.0" fill="rgb(254,206,18)" rx="2" ry="2" />
<text  x="829.92" y="303.5" >__de..</text>
</g>
<g >
<title>entry_SYSCALL_64_after_hwframe (5 samples, 19.23%)</title><rect x="645.4" y="645" width="226.9" height="15.0" fill="rgb(249,77,33)" rx="2" ry="2" />
<text  x="648.38" y="655.5" >entry_SYSCALL_64_after_hwframe</text>
</g>
<g >
<title>__schedule (4 samples, 15.38%)</title><rect x="645.4" y="485" width="181.5" height="15.0" fill="rgb(246,229,34)" rx="2" ry="2" />
<text  x="648.38" y="495.5" >__schedule</text>
</g>
<g >
<title>[kube-apiserver] (4 samples, 15.38%)</title><rect x="418.5" y="613" width="181.5" height="15.0" fill="rgb(217,89,19)" rx="2" ry="2" />
<text  x="421.46" y="623.5" >[kube-apiserver]</text>
</g>
<g >
<title>__tcp_transmit_skb (1 samples, 3.85%)</title><rect x="826.9" y="437" width="45.4" height="15.0" fill="rgb(207,109,22)" rx="2" ry="2" />
<text  x="829.92" y="447.5" >__tc..</text>
</g>
<g >
<title>do_epoll_wait (4 samples, 15.38%)</title><rect x="645.4" y="565" width="181.5" height="15.0" fill="rgb(214,216,27)" rx="2" ry="2" />
<text  x="648.38" y="575.5" >do_epoll_wait</text>
</g>
<g >
<title>__tcp_push_pending_frames (1 samples, 3.85%)</title><rect x="826.9" y="469" width="45.4" height="15.0" fill="rgb(231,107,13)" rx="2" ry="2" />
<text  x="829.92" y="479.5" >__tc..</text>
</g>
<g >
<title>x64_sys_call (1 samples, 3.85%)</title><rect x="600.0" y="581" width="45.4" height="15.0" fill="rgb(210,30,2)" rx="2" ry="2" />
<text  x="603.00" y="591.5" >x64_..</text>
</g>
<g >
<title>[kube-apiserver] (2 samples, 7.69%)</title><rect x="509.2" y="517" width="90.8" height="15.0" fill="rgb(212,123,2)" rx="2" ry="2" />
<text  x="512.23" y="527.5" >[kube-apis..</text>
</g>
<g >
<title>schedule_hrtimeout_range_clock (5 samples, 19.23%)</title><rect x="963.1" y="533" width="226.9" height="15.0" fill="rgb(247,157,19)" rx="2" ry="2" />
<text  x="966.08" y="543.5" >schedule_hrtimeout_range_clock</text>
</g>
<g >
<title>wake_up_q (1 samples, 3.85%)</title><rect x="600.0" y="517" width="45.4" height="15.0" fill="rgb(230,75,21)" rx="2" ry="2" />
<text  x="603.00" y="527.5" >wake..</text>
</g>
<g >
<title>net_rx_action (1 samples, 3.85%)</title><rect x="826.9" y="213" width="45.4" height="15.0" fill="rgb(216,166,3)" rx="2" ry="2" />
<text  x="829.92" y="223.5" >net_..</text>
</g>
<g >
<title>[kube-apiserver] (2 samples, 7.69%)</title><rect x="509.2" y="469" width="90.8" height="15.0" fill="rgb(236,38,48)" rx="2" ry="2" />
<text  x="512.23" y="479.5" >[kube-apis..</text>
</g>
<g >
<title>[kube-apiserver] (19 samples, 73.08%)</title><rect x="327.7" y="693" width="862.3" height="15.0" fill="rgb(241,63,54)" rx="2" ry="2" />
<text  x="330.69" y="703.5" >[kube-apiserver]</text>
</g>
<g >
<title>schedule (4 samples, 15.38%)</title><rect x="645.4" y="501" width="181.5" height="15.0" fill="rgb(248,87,49)" rx="2" ry="2" />
<text  x="648.38" y="511.5" >schedule</text>
</g>
<g >
<title>syscall_trace_enter (1 samples, 3.85%)</title><rect x="554.6" y="405" width="45.4" height="15.0" fill="rgb(248,65,14)" rx="2" ry="2" />
<text  x="557.62" y="415.5" >sysc..</text>
</g>
<g >
<title>[kube-apiserver] (2 samples, 7.69%)</title><rect x="509.2" y="501" width="90.8" height="15.0" fill="rgb(245,189,9)" rx="2" ry="2" />
<text  x="512.23" y="511.5" >[kube-apis..</text>
</g>
<g >
<title>__napi_poll (1 samples, 3.85%)</title><rect x="826.9" y="197" width="45.4" height="15.0" fill="rgb(215,173,42)" rx="2" ry="2" />
<text  x="829.92" y="207.5" >__na..</text>
</g>
<g >
<title>process_backlog (1 samples, 3.85%)</title><rect x="826.9" y="181" width="45.4" height="15.0" fill="rgb(230,158,2)" rx="2" ry="2" />
<text  x="829.92" y="191.5" >proc..</text>
</g>
</g>
</svg>
